<?xml version="1.0" encoding="iso-8859-1"?>
<!-- Generator: Adobe Illustrator 19.0.0, SVG Export Plug-In . SVG Version: 6.00 Build 0)  -->
<svg version="1.1" id="Layer_1" xmlns="http://www.w3.org/2000/svg" xmlns:xlink="http://www.w3.org/1999/xlink" x="0px" y="0px"
	 viewBox="0 0 297 297" style="enable-background:new 0 0 297 297;" xml:space="preserve">
<g>
	<g id="XMLID_32_">
		<g>
			<path style="fill:#BDC3C7;" d="M269.29,262.49c3.75,0,6.8,3.05,6.8,6.8s-3.05,6.79-6.8,6.79H27.72c-3.75,0-6.8-3.04-6.8-6.79
				s3.05-6.8,6.8-6.8H269.29z"/>
			<path style="fill:#2ECC71;" d="M189.81,156.54v20.87l-41.31,27.54l-41.31-27.54v-20.87l18.26,12.16
				c3.2,2.15,7.33,2.35,10.73,0.52c3.4-1.82,5.53-5.36,5.53-9.22V27.71c0-3.75,3.04-6.79,6.79-6.79s6.8,3.04,6.8,6.79V160
				c0,3.86,2.12,7.4,5.52,9.22c3.41,1.83,7.53,1.62,10.74-0.52L189.81,156.54z"/>
			<path d="M269.29,241.57c15.28,0,27.71,12.44,27.71,27.72S284.57,297,269.29,297H27.72C12.43,297,0,284.57,0,269.29
				s12.43-27.72,27.72-27.72H269.29z M276.09,269.29c0-3.75-3.05-6.8-6.8-6.8H27.72c-3.75,0-6.8,3.05-6.8,6.8s3.05,6.79,6.8,6.79
				h241.57C273.04,276.08,276.09,273.04,276.09,269.29z"/>
			<path d="M210.73,137v46.01c0,3.5-1.75,6.76-4.66,8.7l-51.77,34.51c-1.75,1.17-3.77,1.76-5.8,1.76c-2.02,0-4.04-0.59-5.8-1.76
				l-51.76-34.51c-2.91-1.94-4.66-5.2-4.66-8.7V137c0-3.86,2.12-7.4,5.52-9.22c3.4-1.83,7.53-1.63,10.74,0.52l18.25,12.16V27.71
				C120.79,12.43,133.22,0,148.5,0s27.72,12.43,27.72,27.71v112.75l18.25-12.16c3.21-2.14,7.33-2.35,10.73-0.52
				C208.6,129.6,210.73,133.14,210.73,137z M189.81,177.41v-20.87l-18.25,12.16c-3.21,2.14-7.33,2.35-10.74,0.52
				c-3.4-1.82-5.52-5.36-5.52-9.22V27.71c0-3.75-3.05-6.79-6.8-6.79s-6.79,3.04-6.79,6.79V160c0,3.86-2.13,7.4-5.53,9.22
				c-3.4,1.83-7.53,1.63-10.73-0.52l-18.26-12.16v20.87l41.31,27.54L189.81,177.41z"/>
		</g>
	</g>
</g>
<g>
</g>
<g>
</g>
<g>
</g>
<g>
</g>
<g>
</g>
<g>
</g>
<g>
</g>
<g>
</g>
<g>
</g>
<g>
</g>
<g>
</g>
<g>
</g>
<g>
</g>
<g>
</g>
<g>
</g>
</svg>
