<svg xmlns="http://www.w3.org/2000/svg" width="21" height="20" viewBox="0 0 21 20">
    <path fill="#ababab" fill-rule="nonzero" d="M14.464 0a6.25 6.25 0 0 1 6.25 6.25v7.5a6.25 6.25 0 0 1-6.25 6.25h-7.5a6.25 6.25 0 0 1-6.25-6.25v-7.5A6.25 6.25 0 0 1 6.964 0h7.5zm4.375 13.75v-7.5a4.38 4.38 0 0 0-4.375-4.375h-7.5A4.38 4.38 0 0 0 2.59 6.25v7.5a4.38 4.38 0 0 0 4.375 4.375h7.5a4.38 4.38 0 0 0 4.375-4.375zM10.714 5a5 5 0 1 1 0 10 5 5 0 0 1 0-10zm0 8.125A3.13 3.13 0 0 0 13.84 10a3.129 3.129 0 0 0-3.125-3.125A3.129 3.129 0 0 0 7.59 10a3.13 3.13 0 0 0 3.125 3.125zm5.375-7.834a.666.666 0 1 1 0-1.332.666.666 0 0 1 0 1.332z"/>
</svg>
