<svg xmlns="http://www.w3.org/2000/svg" viewBox="0 0 41.21 37.46"><defs><style>.cls-1{fill:#ababab;}</style></defs><title>Asset 25</title><g id="Layer_2" data-name="Layer 2"><g id="Layer_1-2" data-name="Layer 1"><g id="LinkedIn"><rect class="cls-1" x="1.04" y="12.01" width="8.03" height="25.45"/><path class="cls-1" d="M31,11.77c-4.6,0-7.48,2.49-8,4.24V12H14c.12,2.12,0,25.45,0,25.45h9V23.69a5.8,5.8,0,0,1,.2-2.08,4.6,4.6,0,0,1,4.35-3.12c3.13,0,4.56,2.35,4.56,5.8V37.46h9.11V23.31C41.21,15.43,36.73,11.77,31,11.77Z"/><path class="cls-1" d="M4.91,0C1.94,0,0,1.9,0,4.42S1.89,8.83,4.79,8.83h.06c3,0,4.9-2,4.9-4.42S7.87,0,4.91,0Z"/></g></g></g></svg>