<svg xmlns="http://www.w3.org/2000/svg" xmlns:xlink="http://www.w3.org/1999/xlink" width="512" height="512" preserveAspectRatio="xMidYMid" version="1.1" viewBox="0 -159.5 512 512"><g><polygon fill="#3D3D3D" points="376.818 158.244 391.609 120.841 434.316 120.841 414.049 64.102 439.397 0 512 192.769 458.458 192.769 446.051 158.244"/><polygon fill="#5A0FC8" points="331.14 192.77 408.863 0 357.335 .001 304.168 124.572 266.361 .001 226.754 .001 186.159 124.572 157.53 67.808 131.623 147.625 157.927 192.77 208.637 192.77 245.32 81.056 280.296 192.77"/><path fill="#3D3D3D" d="M48.9117387,126.594779 L80.6502305,126.594779 C90.2643944,126.594779 98.8254436,125.52173 106.333378,123.375631 L114.541378,98.0882869 L137.481444,27.4139262 C135.733509,24.6434344 133.737968,22.0239459 131.494821,19.5558016 C119.71646,6.51845082 102.483673,0 79.7959354,0 L0,0 L0,192.769205 L48.9117387,192.769205 L48.9117387,126.594779 Z M90.9224928,44.3484836 C95.5231485,48.9787787 97.8232141,55.1749754 97.8232141,62.9375984 C97.8232141,70.7597623 95.8001321,76.9635656 91.7542305,81.5490082 C87.3188207,86.6440902 79.1517387,89.1915 67.2535092,89.1915 L48.9117387,89.1915 L48.9117387,37.4026475 L67.3883289,37.4026475 C78.477378,37.4026475 86.3220994,39.7179262 90.9224928,44.3484836 Z"/></g></svg>