<svg xmlns="http://www.w3.org/2000/svg" width="102" height="22" viewBox="0 0 102 22">
    <g fill="#FFF" fill-rule="evenodd">
        <path d="M102 5.946h-3.222v4.28H91.8v-4.28h-3.221v4.28h-5.637a1.878 1.878 0 0 1-1.879-1.872V5.946h-3.221v2.408a1.878 1.878 0 0 1-1.879 1.873 1.878 1.878 0 0 1-1.879-1.873V5.946h-3.221v2.408a1.878 1.878 0 0 1-1.879 1.873h-1.879V5.946h-3.22v4.28h-17.18v3.212h3.758v.535c0 2.656-2.167 4.816-4.831 4.816-2.664 0-4.832-2.16-4.832-4.816v-3.746H37.58v3.746c0 4.426 3.613 8.027 8.053 8.027 4.44 0 8.052-3.6 8.052-8.027v-.535H68.985a5.09 5.09 0 0 0 3.489-1.381 5.09 5.09 0 0 0 3.49 1.38 5.09 5.09 0 0 0 3.489-1.38 5.089 5.089 0 0 0 3.489 1.38H102V5.947z"/>
        <path d="M84.702 19.297h3.854V22h3.304v-5.946h-7.158zM102 0h-6.561v2.973H102zM26.842 11.297H10.737V5.946h16.105zM26.842 22H0v-5.351h26.842z"/>
    </g>
</svg>
