<svg xmlns="http://www.w3.org/2000/svg" width="23" height="19" viewBox="0 0 23 19">
    <path fill="#ababab" fill-rule="nonzero" d="M22.857 2.627a9.77 9.77 0 0 1-2.7.74A4.66 4.66 0 0 0 22.22.777a9.365 9.365 0 0 1-2.972 1.134 4.684 4.684 0 0 0-8.106 3.204c0 .372.032.73.109 1.07-3.896-.19-7.343-2.058-9.659-4.902A4.718 4.718 0 0 0 .95 3.65c0 1.623.836 3.062 2.081 3.895a4.628 4.628 0 0 1-2.117-.577v.051a4.707 4.707 0 0 0 3.755 4.604 4.677 4.677 0 0 1-1.229.155c-.3 0-.603-.018-.887-.08.607 1.855 2.33 3.22 4.378 3.264a9.415 9.415 0 0 1-5.81 1.998c-.384 0-.752-.017-1.121-.064A13.192 13.192 0 0 0 7.189 19c8.622 0 13.337-7.143 13.337-13.334 0-.207-.007-.407-.017-.606a9.348 9.348 0 0 0 2.348-2.433z"/>
</svg>
